<svg xmlns="http://www.w3.org/2000/svg" xmlns:xlink="http://www.w3.org/1999/xlink" enable-background="new 0 0 64 64" id="Layer_1" version="1.1" viewBox="0 0 64 64" xml:space="preserve"><g><path d="M34.464,36.664v-1.116c0-1.361-1.103-2.464-2.463-2.464c-1.361,0-2.464,1.103-2.464,2.464v1.116   c0,1.361,1.103,2.464,2.464,2.464C33.36,39.128,34.464,38.025,34.464,36.664z" fill="#00a651"/><path xmlns="http://www.w3.org/2000/svg" d="M36.154,38.027c-0.546,1.787-2.191,3.099-4.153,3.099c-1.963,0-3.608-1.312-4.154-3.099H10.878   c-1.071,0-2.083-0.249-2.991-0.681v11.267c0,2.2,1.8,4,4,4h40.226c2.2,0,4-1.8,4-4V37.347c-0.909,0.432-1.92,0.681-2.991,0.681   H36.154z" fill="#00a651"/><path d="M52.955,17.795h-9.601c-0.58-3.626-3.721-6.408-7.508-6.408h-7.693c-3.787,0-6.927,2.782-7.508,6.408h-9.6   c-2.292,0-4.167,1.8-4.167,4v9.233c0,2.209,1.791,4,4,4h16.78c0.057-1.151,0.551-2.185,1.332-2.933   c0.024-0.023,0.052-0.041,0.077-0.063c0.173-0.159,0.353-0.309,0.55-0.439c0.07-0.047,0.15-0.079,0.223-0.121   c0.162-0.093,0.322-0.19,0.497-0.262c0.137-0.057,0.285-0.09,0.429-0.133c0.124-0.037,0.242-0.086,0.371-0.112   c0.279-0.057,0.568-0.087,0.863-0.087c0.296,0,0.584,0.031,0.863,0.087c0.128,0.026,0.246,0.075,0.37,0.112   c0.144,0.043,0.292,0.076,0.429,0.134c0.174,0.072,0.333,0.168,0.495,0.261c0.074,0.043,0.154,0.075,0.225,0.122   c0.197,0.129,0.376,0.279,0.549,0.438c0.025,0.023,0.054,0.041,0.078,0.065c0.782,0.748,1.275,1.782,1.332,2.933h16.78   c2.209,0,4-1.791,4-4v-9.233C57.122,19.595,55.247,17.795,52.955,17.795z M24.496,17.795c0.51-1.541,1.947-2.664,3.657-2.664h7.693   c1.71,0,3.147,1.123,3.657,2.664H24.496z" fill="#00a651"/></g></svg>