<svg xmlns="http://www.w3.org/2000/svg" xmlns:xlink="http://www.w3.org/1999/xlink" id="Layer_1" style="enable-background:new 0 0 512 512;" version="1.1" viewBox="0 0 512 512" xml:space="preserve"><g><path d="M255.9,6c-21.7,0-43.4,5.3-62.3,16c-33.9,19.2-57.9,55.3-61.9,94.1c-3.7,36.1,8.9,71.8,22,105.7 c15.1,38.9,102.1,228.9,102.1,228.9s87.6-191.4,102.8-230.9c13.1-34.2,25.7-70.2,21.2-106.5c-5.2-42.1-34.7-79.9-73.6-96.8 C290.5,9.5,273.2,6,255.9,6z M255.9,189.8c-33,0-59.8-26.8-59.8-59.8s26.8-59.8,59.8-59.8S315.7,97,315.7,130 S289,189.8,255.9,189.8z" fill="#9fa4a4"/></g></svg>